<svg t="1683601968823" class="icon" viewBox="0 0 1024 1024" version="1.1" xmlns="http://www.w3.org/2000/svg" p-id="5864" width="200" height="200"><path d="M766.681 897.999H257.518c-27.086 0-53.134-13.46-71.465-36.929-16.777-21.479-26.016-49.502-26.016-78.906V533.121h64v249.043c0 30.547 17.645 51.835 33.481 51.835h509.163c15.836 0 33.48-21.288 33.48-51.835V528h64v254.164c0 29.404-9.239 57.427-26.016 78.906-18.33 23.469-44.378 36.929-71.464 36.929z" fill="" p-id="5865"></path><path d="M192.064 560.123c-9.956 0-19.766-4.631-26.017-13.334-10.31-14.354-7.032-34.348 7.322-44.658l320.063-229.895c14.354-10.312 34.349-7.032 44.659 7.322 10.311 14.354 7.032 34.349-7.322 44.659L210.706 554.111a31.858 31.858 0 0 1-18.642 6.012z" fill="" p-id="5866"></path><path d="M833.073 559.123a31.85 31.85 0 0 1-18.642-6.012L494.369 323.216c-14.354-10.31-17.632-30.305-7.322-44.659 10.311-14.354 30.307-17.631 44.658-7.322L851.768 501.13c14.354 10.31 17.633 30.305 7.322 44.658-6.251 8.704-16.063 13.335-26.017 13.335zM98.029 497.429c-9.74 0-19.357-4.429-25.643-12.826-10.59-14.148-7.706-34.203 6.442-44.794l415.875-311.294c14.147-10.589 34.203-7.707 44.794 6.442 10.591 14.148 7.706 34.203-6.442 44.794L117.18 491.045a31.86 31.86 0 0 1-19.151 6.384z" fill="" p-id="5867"></path><path d="M929.732 497.429a31.853 31.853 0 0 1-19.151-6.384L494.707 179.751c-14.148-10.591-17.033-30.646-6.442-44.794 10.591-14.149 30.646-17.032 44.794-6.442l415.874 311.294c14.148 10.591 17.033 30.646 6.442 44.794-6.285 8.397-15.904 12.826-25.643 12.826zM512.1 792c-17.673 0-32-14.327-32-32V624.965c0-17.673 14.327-32 32-32 17.673 0 32 14.327 32 32V760c0 17.673-14.328 32-32 32z" fill="" p-id="5868"></path><path d="M607 627.5H418c-12.426 0-22.5-10.073-22.5-22.5s10.074-22.5 22.5-22.5h189c12.427 0 22.5 10.073 22.5 22.5s-10.073 22.5-22.5 22.5zM608 709.5H419c-12.426 0-22.5-10.073-22.5-22.5s10.074-22.5 22.5-22.5h189c12.427 0 22.5 10.073 22.5 22.5s-10.073 22.5-22.5 22.5z" fill="" p-id="5869"></path><path d="M512.128 638.049c-10.179 0-20.187-4.846-26.392-13.866l-64.013-93.047c-10.017-14.56-6.333-34.483 8.227-44.5 14.561-10.015 34.484-6.333 44.501 8.227l64.012 93.047c10.018 14.56 6.334 34.483-8.227 44.5a31.852 31.852 0 0 1-18.108 5.639z" fill="" p-id="5870"></path><path d="M518.059 640.049a31.841 31.841 0 0 1-18.109-5.64c-14.56-10.017-18.243-29.94-8.227-44.5l64.013-93.047c10.017-14.56 29.941-18.243 44.501-8.227 14.56 10.017 18.243 29.941 8.226 44.5l-64.013 93.047c-6.204 9.02-16.214 13.867-26.391 13.867z" fill="" p-id="5871"></path></svg>